<svg xmlns="http://www.w3.org/2000/svg" version="1.1" xmlns:xlink="http://www.w3.org/1999/xlink" xmlns:svgjs="http://svgjs.dev/svgjs" width="1000" height="386" viewBox="0 0 1000 386"><g transform="matrix(1,0,0,1,-0.6060556661203691,0.15957973383643775)"><svg viewBox="0 0 396 153" data-background-color="#ffffff" preserveAspectRatio="xMidYMid meet" height="386" width="1000" xmlns="http://www.w3.org/2000/svg" xmlns:xlink="http://www.w3.org/1999/xlink"><defs></defs><g id="tight-bounds" transform="matrix(1,0,0,1,0.23999804378365752,-0.06325310693516428)"><svg viewBox="0 0 395.52 153.12650621387033" height="153.12650621387033" width="395.52"><g><svg viewBox="0 0 663.2906598032638 256.7945523360807" height="153.12650621387033" width="395.52"><g transform="matrix(1,0,0,1,267.7706598032638,78.96552579260234)"><svg viewBox="0 0 395.52 98.86350075087601" height="98.86350075087601" width="395.52"><g><svg viewBox="0 0 395.52 98.86350075087601" height="98.86350075087601" width="395.52"><g><svg viewBox="0 0 395.52 98.86350075087601" height="98.86350075087601" width="395.52"><g transform="matrix(1,0,0,1,0,0)"><svg width="395.52" viewBox="1.6100000143051147 -36.060001373291016 146.30999755859375 36.56999969482422" height="98.86350075087601" data-palette-color="#ff5858"><path d="M17.41 0.51L17.41 0.51Q13.84 0.51 10.94-0.82 8.03-2.15 5.94-4.58 3.86-7.01 2.73-10.29 1.61-13.57 1.61-17.5L1.61-17.5 1.61-18.04Q1.61-21.95 2.73-25.23 3.86-28.52 5.94-30.94 8.03-33.37 10.93-34.72 13.82-36.06 17.38-36.06L17.38-36.06Q21.02-36.06 23.94-34.72 26.86-33.37 28.96-30.94 31.05-28.52 32.17-25.23 33.28-21.95 33.28-18.04L33.28-18.04 33.28-17.5Q33.28-13.57 32.17-10.29 31.05-7.01 28.97-4.58 26.88-2.15 23.95-0.82 21.02 0.51 17.41 0.51ZM17.41-4.71L17.41-4.71Q20.53-4.71 22.58-6.31 24.63-7.91 25.65-10.79 26.66-13.67 26.66-17.5L26.66-17.5 26.66-18.09Q26.66-21.88 25.63-24.73 24.61-27.59 22.55-29.2 20.48-30.81 17.38-30.81L17.38-30.81Q14.36-30.81 12.33-29.21 10.3-27.61 9.29-24.76 8.28-21.9 8.28-18.09L8.28-18.09 8.28-17.5Q8.28-13.7 9.29-10.8 10.3-7.91 12.34-6.31 14.38-4.71 17.41-4.71ZM51.68 0L36.3 0 36.3-4 40.16-4.81 40.16-30.71 36.3-31.52 36.3-35.55 40.16-35.55 51.56-35.55Q56.32-35.55 59.92-33.3 63.52-31.05 65.55-27.12 67.58-23.19 67.58-18.09L67.58-18.09 67.58-17.43Q67.58-12.4 65.59-8.46 63.6-4.52 60.02-2.26 56.44 0 51.68 0L51.68 0ZM46.8-30.42L46.8-5.1 51.34-5.1Q54.39-5.1 56.52-6.71 58.64-8.33 59.78-11.11 60.91-13.89 60.91-17.43L60.91-17.43 60.91-18.14Q60.91-21.73 59.78-24.5 58.64-27.27 56.52-28.85 54.39-30.42 51.34-30.42L51.34-30.42 46.8-30.42ZM85.15 0L70.84 0 70.84-4 74.65-4.74 74.65-30.79 70.84-31.52 70.84-35.55 74.65-35.55 84.35-35.55 94.4-10.3 94.55-10.3 104.29-35.55 117.87-35.55 117.87-31.52 114.03-30.79 114.03-4.74 117.87-4 117.87 0 103.56 0 103.56-4 107.59-4.74 107.59-12.28 107.69-28.08 107.56-28.1 96.72-0.66 91.82-0.66 80.71-27.93 80.56-27.91 80.95-12.87 80.95-4.74 85.15-4 85.15 0ZM134.93 0.51L134.93 0.51Q131.14 0.51 127.96-0.38 124.77-1.27 121.75-3.39L121.75-3.39 121.75-11.79 126.87-11.79 127.65-6.62Q128.85-5.69 130.77-5.13 132.68-4.57 134.93-4.57L134.93-4.57Q136.98-4.57 138.38-5.14 139.79-5.71 140.52-6.77 141.25-7.84 141.25-9.25L141.25-9.25Q141.25-10.62 140.59-11.66 139.93-12.7 138.43-13.54 136.93-14.38 134.37-15.14L134.37-15.14Q130.27-16.28 127.53-17.75 124.8-19.21 123.44-21.28 122.09-23.34 122.09-26.2L122.09-26.2Q122.09-29.05 123.66-31.26 125.24-33.47 128.03-34.74 130.83-36.01 134.47-36.04L134.47-36.04Q138.52-36.08 141.62-35.03 144.72-33.98 146.92-32.2L146.92-32.2 146.92-24.39 141.91-24.39 141.01-29.3Q140.03-29.96 138.44-30.42 136.86-30.88 134.78-30.88L134.78-30.88Q133-30.88 131.63-30.33 130.27-29.79 129.48-28.74 128.7-27.69 128.7-26.22L128.7-26.22Q128.7-24.95 129.39-24 130.07-23.05 131.68-22.24 133.29-21.44 136.05-20.58L136.05-20.58Q141.89-18.99 144.9-16.3 147.92-13.6 147.92-9.3L147.92-9.3Q147.92-6.32 146.29-4.11 144.67-1.9 141.75-0.7 138.84 0.51 134.93 0.51Z" opacity="1" transform="matrix(1,0,0,1,0,0)" fill="#ff5858" class="undefined-text-0" data-fill-palette-color="primary" id="text-0"></path></svg></g></svg></g></svg></g></svg></g><g><svg viewBox="0 0 244.43135999999998 256.7945523360807" height="256.7945523360807" width="244.43135999999998"><g><svg xmlns="http://www.w3.org/2000/svg" xmlns:xlink="http://www.w3.org/1999/xlink" version="1.1" x="0" y="0" viewBox="8.480998992919922 6.380997657775879 83.03799438476562 87.23800659179688" enable-background="new 0 0 100 100" xml:space="preserve" height="256.7945523360807" width="244.43135999999998" class="icon-icon-0" data-fill-palette-color="accent" id="icon-0"><g fill="#ff5858" data-fill-palette-color="accent"><path d="M50.132 6.381c-1.546 0-34.877 0.096-40.561 7.582-0.645 0.332-1.09 0.996-1.09 1.771 0 0.465 0.092 0.908 0.264 1.331v14.948c0 9.765 39.696 9.877 41.387 9.877 1.689 0 41.387-0.112 41.387-9.877V16.258C91.519 6.494 51.821 6.381 50.132 6.381zM50.132 10.381c21.515 0 34.48 3.289 36.996 5.481-1.712 2.18-14.851 5.749-37.259 5.749-21.517 0-34.481-3.29-36.997-5.481C14.585 13.95 27.724 10.381 50.132 10.381zM87.519 31.942c-1.034 2.154-14.285 5.947-37.387 5.947s-36.353-3.793-37.387-5.947V20.57c10.297 4.97 35.777 5.041 37.124 5.041 1.37 0 27.728-0.074 37.649-5.308V31.942z" fill="#ff5858" data-fill-palette-color="accent"></path><path d="M89.519 38.417c-1.08 0-1.96 0.856-1.998 1.927-1.024 2.153-14.276 5.95-37.389 5.95s-36.364-3.796-37.389-5.95c-0.038-1.071-0.918-1.927-1.998-1.927-1.104 0-2 0.896-2 2v17.33c0 9.765 39.696 9.877 41.387 9.877 1.689 0 41.387-0.112 41.387-9.877v-17.33C91.519 39.312 90.623 38.417 89.519 38.417zM87.519 57.677c-1.034 2.154-14.284 5.947-37.387 5.947s-36.353-3.793-37.387-5.947V45.123c10.119 5.098 36.028 5.171 37.387 5.171s27.268-0.073 37.387-5.171V57.677z" fill="#ff5858" data-fill-palette-color="accent"></path><path d="M89.519 64.412c-1.08 0-1.96 0.856-1.998 1.927-1.024 2.153-14.276 5.95-37.389 5.95s-36.364-3.796-37.389-5.95c-0.038-1.071-0.918-1.927-1.998-1.927-1.104 0-2 0.896-2 2v17.33c0 9.765 39.696 9.877 41.387 9.877 1.689 0 41.387-0.112 41.387-9.877v-17.33C91.519 65.307 90.623 64.412 89.519 64.412zM87.519 83.671c-1.034 2.154-14.285 5.947-37.387 5.947s-36.353-3.793-37.387-5.947V71.118c10.119 5.098 36.028 5.171 37.387 5.171s27.268-0.073 37.387-5.171V83.671z" fill="#ff5858" data-fill-palette-color="accent"></path></g></svg></g></svg></g></svg></g></svg><rect width="395.52" height="153.12650621387033" fill="none" stroke="none" visibility="hidden"></rect></g></svg></g></svg>