<svg xmlns="http://www.w3.org/2000/svg" version="1.1" xmlns:xlink="http://www.w3.org/1999/xlink" xmlns:svgjs="http://svgjs.dev/svgjs" width="1000" height="1125" viewBox="0 0 1000 1125"><g transform="matrix(1,0,0,1,1.7053025658242404e-13,0)"><svg viewBox="0 0 320 360" data-background-color="#ffffff" preserveAspectRatio="xMidYMid meet" height="1125" width="1000" xmlns="http://www.w3.org/2000/svg" xmlns:xlink="http://www.w3.org/1999/xlink"><defs></defs><g id="tight-bounds" transform="matrix(1,0,0,1,0,0)"><svg viewBox="0 0 320 360" height="360" width="320"><g><svg></svg></g><g><svg viewBox="0 0 320 360" height="360" width="320"><g><path d="M20.961 227.22l3.726 4.658-1.863-6.056c-0.466-2.795-3.726 0.466-1.863 1.398M25.153 224.425c1.397 2.329 2.795 4.658 2.795 6.987 0 3.261 2.795 4.658 5.123 5.589-3.261-3.726-5.124-13.974-7.918-12.576M204.017 26.929c7.918 0 15.371-0.932 23.756 0.931 20.495 5.124 37.729 15.371 49.374 29.811l32.606 52.169c1.397 13.042 4.192 27.482 3.726 43.319 3.261 0 2.795-4.658 6.521-5.59-3.726 9.316-5.59 20.961-6.521 34.469-2.329-7.453 0-18.632 0.466-24.687-3.261 5.124-5.124 1.397-5.124-0.932 0.466-3.726-1.397-3.261-2.795-4.658-5.124-4.658-8.384-9.782-12.11-17.7 2.329-6.055 2.795-14.905-4.658-19.563-2.329-1.397-5.124-3.726-6.521-7.453-1.863-5.124-5.124-11.179-4.193-19.097 0.466-2.329-6.987 5.124-11.179 1.863-18.166-12.576-36.332-27.016-58.224-39.127-11.645 0-20.029-4.192-24.221-9.316-3.726-4.658-0.932-10.713 4.658-11.179 3.261 0 6.987-0.932 9.782 0.932 0.466-1.863 2.329-4.192 4.657-4.192M157.904 16.215l0.932 0.466c4.658 0.932 6.987 7.453 12.11 5.124 0 3.261 0.466 6.521-0.466 8.85-1.397 3.726-5.59 3.726-8.85 3.726-31.208-1.863-49.374 11.179-68.471 22.358-5.124 3.261-10.713 5.59-14.906 9.782-20.029 18.632-41.921 35.866-47.045 70.335l-4.192 38.195c-0.466 4.192-5.124 8.384-4.192 13.508l3.26 22.824c-3.261-3.261-5.124 0.932-4.192 2.795 0.466 1.397 2.329 6.055 5.124 1.863 3.726 6.987 7.453 20.495 12.576 26.55 15.837 18.632 36.332 35.4 53.101 52.169 4.192-0.932 7.453-0.932 8.384-3.727 1.397 2.795-1.397 5.59-3.726 6.056 7.453 4.658 15.837 8.85 27.016 9.781 14.44 0.932 27.948 3.261 40.524 6.522 6.521-1.863 13.042-2.795 20.029-3.261 2.329 0 3.726-3.726 6.521-4.658l0.466-4.658c2.795 4.192 2.329-1.397 0.466-4.192 3.261 2.795 4.192 5.124 5.589 6.987 0-1.397 3.726-6.521 3.727-0.466l0.931-6.055c1.397-0.932 1.863 5.124 3.261 0.931 1.397-4.192 4.192-0.932 6.987-2.329-0.932 1.863-0.466 5.59 2.794 3.261l3.727-3.261c2.329 5.59 6.055 3.261 7.918 2.329 20.495-13.042 40.99-28.413 60.553-43.784l-0.466 6.055 2.329-7.453c2.329 2.329 4.192 0.466 5.124-0.931 2.795-4.658 6.521-9.316 12.577-13.508-7.453 20.029-16.303 35.866-27.482 48.908l-4.658 5.59c0 3.261-0.932 7.453-4.658 7.918-1.863 0.466-5.59-0.932-8.384 1.863-1.397 1.863 3.261 5.59-0.466 2.795-3.261-2.329-6.521 0-10.248 0.932-2.795 0.932 1.863 3.726 2.795 5.589 0.932 1.863 1.863 3.726 1.398 6.056l-5.124-5.59c-6.055 3.261-9.782 9.316-14.906 13.974-2.329 1.863-1.397 5.124-1.397 7.918-3.261 0-6.987-0.932-8.85 0.932-1.397 1.863-0.932 4.658-0.932 7.453-4.658-0.466-5.124-7.453-9.315-6.056-4.192 0.932-8.85 1.397-12.577 3.727 2.795 5.59-4.658 2.329-3.726 3.26-6.987-4.192-13.042-7.453-20.495-4.658-15.837-5.124-35.4-2.795-49.84-0.931 0-2.329 0.466-4.658-0.466-5.124-0.932 2.329-3.726 1.397-3.26 1.397-8.85-6.055-17.7-9.782-27.016-14.905-8.384 0.932-16.303-3.261-18.632-5.59-6.521-6.055-13.974-2.795-20.029-4.192-13.042-3.261-17.7-16.769-19.098-26.084-0.932-4.658-4.658-6.521-6.055-6.056-6.055-19.563-15.371-37.263-22.824-55.429-1.863-4.658-1.397-9.316-1.397-14.44 2.329 0.932 4.658 0.466 4.192-2.794-2.329-15.371-7.918-27.016-13.974-38.195 3.261-15.837 3.726-34.469 11.179-48.443 6.521-12.576 18.632-19.098 27.016-29.811 2.795-3.726 2.795-8.85 5.59-12.11 9.316-9.316 18.632-19.098 28.879-27.482 4.658-3.726 10.247 0 17.234-1.397 2.329-8.384 11.645-15.837 20.495-13.508 3.726 0.932 11.179-8.85 13.508-9.782 3.726-1.397 1.863 3.726 1.863 6.987 8.85-6.987 20.961-10.713 32.14-14.906" fill="#ee3e38" data-fill-palette-color="tertiary"></path></g><g transform="matrix(1,0,0,1,64,124.51147319435104)"><svg viewBox="0 0 192 110.97705361129792" height="110.97705361129792" width="192"><g><svg viewBox="0 0 192 110.97705361129792" height="110.97705361129792" width="192"><g><svg viewBox="0 0 192 110.97705361129792" height="110.97705361129792" width="192"><g transform="matrix(1,0,0,1,0,67.07658286482852)"><svg viewBox="0 0 192 43.9004707464694" height="43.9004707464694" width="192"><g><svg viewBox="0 0 192 43.9004707464694" height="43.9004707464694" width="192"><g><svg viewBox="0 0 192 43.9004707464694" height="43.9004707464694" width="192"><g transform="matrix(1,0,0,1,0,0)"><svg width="192" viewBox="1.7999999523162842 -33.5 148.69000244140625 34" height="43.9004707464694" data-palette-color="#ee3e38"><path d="M18.35-33.5L18.35-33.5Q23.5-33.5 27.18-31.48 30.85-29.45 32.83-25.65 34.8-21.85 34.8-16.5L34.8-16.5Q34.8-11.15 32.83-7.35 30.85-3.55 27.18-1.53 23.5 0.5 18.35 0.5L18.35 0.5Q13.25 0.5 9.53-1.53 5.8-3.55 3.8-7.35 1.8-11.15 1.8-16.5L1.8-16.5Q1.8-21.85 3.8-25.65 5.8-29.45 9.53-31.48 13.25-33.5 18.35-33.5ZM18.35-25.7L18.35-25.7Q16.3-25.7 14.98-24.68 13.65-23.65 12.98-21.65 12.3-19.65 12.3-16.5L12.3-16.5Q12.3-13.4 12.98-11.38 13.65-9.35 14.98-8.33 16.3-7.3 18.35-7.3L18.35-7.3Q20.35-7.3 21.7-8.33 23.05-9.35 23.7-11.38 24.35-13.4 24.35-16.5L24.35-16.5Q24.35-19.65 23.7-21.65 23.05-23.65 21.7-24.68 20.35-25.7 18.35-25.7ZM39.7-33L54.85-33Q62.6-33 66.65-28.7 70.7-24.4 70.7-16.5L70.7-16.5Q70.7-8.65 66.65-4.33 62.6 0 54.85 0L54.85 0 39.7 0 39.7-33ZM49.9-7.45L53.6-7.45Q57.3-7.45 58.75-9.68 60.2-11.9 60.2-16.5L60.2-16.5Q60.2-21.1 58.75-23.33 57.3-25.55 53.6-25.55L53.6-25.55 49.9-25.55 49.9-7.45ZM102.25-33L116-33 116 0 107 0 107-13.2 107.2-23.85 107.09-23.85 99.84 0 91.65 0 84.5-23.85 84.34-23.85 84.55-13.2 84.55 0 75.55 0 75.55-33 89.95-33 94.4-17.35 96.05-10.8 96.15-10.8 97.8-17.35 102.25-33ZM135.74-33.5L135.74-33.5Q140.44-33.5 144.09-32.23 147.74-30.95 150.49-28.35L150.49-28.35 146.04-21.8Q143.79-23.7 141.27-24.78 138.74-25.85 135.69-25.85L135.69-25.85Q134.14-25.85 133.19-25.55 132.24-25.25 131.82-24.73 131.39-24.2 131.39-23.55L131.39-23.55Q131.39-22.75 132.37-22.25 133.34-21.75 135.09-21.35L135.09-21.35 140.09-20.2Q145.09-19.05 147.54-16.82 149.99-14.6 149.99-10.75L149.99-10.75Q149.99-7 148.12-4.5 146.24-2 142.99-0.75 139.74 0.5 135.64 0.5L135.64 0.5Q132.39 0.5 129.32-0.15 126.24-0.8 123.69-2.02 121.14-3.25 119.29-4.95L119.29-4.95 123.69-11.7Q125.04-10.4 126.99-9.38 128.94-8.35 131.14-7.75 133.34-7.15 135.39-7.15L135.39-7.15Q136.84-7.15 137.77-7.43 138.69-7.7 139.09-8.2 139.49-8.7 139.49-9.4L139.49-9.4Q139.49-10.25 138.84-10.78 138.19-11.3 136.39-11.7L136.39-11.7 130.89-12.95Q128.19-13.55 125.89-14.6 123.59-15.65 122.22-17.53 120.84-19.4 120.84-22.45L120.84-22.45Q120.84-25.7 122.59-28.2 124.34-30.7 127.69-32.1 131.04-33.5 135.74-33.5Z" opacity="1" transform="matrix(1,0,0,1,0,0)" fill="#ee3e38" class="undefined-text-0" data-fill-palette-color="primary" id="text-0"></path></svg></g></svg></g></svg></g></svg></g><g transform="matrix(1,0,0,1,56.44816343178284,0)"><svg viewBox="0 0 79.10367313643432 60.67045057162072" height="60.67045057162072" width="79.10367313643432"><g><svg xmlns="http://www.w3.org/2000/svg" xmlns:xlink="http://www.w3.org/1999/xlink" version="1.1" x="0" y="0" viewBox="25.318967819213867 31.071001052856445 49.36152648925781 37.85900115966797" enable-background="new 0 0 100 100" xml:space="preserve" height="60.67045057162072" width="79.10367313643432" class="icon-icon-0" data-fill-palette-color="accent" id="icon-0"><path d="M73.789 58.976c-1.182-2.047-3.386-3.318-5.751-3.318-0.987 0-1.958 0.235-2.849 0.661l-8.713-10.916c0.868-0.984 1.512-2.159 1.861-3.466 0.597-2.228 0.29-4.554-0.863-6.55-1.537-2.662-4.403-4.316-7.48-4.316-1.507 0-2.996 0.4-4.307 1.158-1.998 1.152-3.427 3.014-4.023 5.24-0.598 2.228-0.292 4.553 0.861 6.549 0.288 0.5 0.637 0.951 1.012 1.375l-8.727 10.926c-0.891-0.425-1.861-0.66-2.848-0.66-2.365 0-4.569 1.271-5.752 3.318-0.885 1.535-1.121 3.323-0.662 5.035 0.458 1.712 1.557 3.143 3.09 4.027 1.01 0.583 2.155 0.891 3.314 0.891 2.365 0 4.568-1.271 5.752-3.318 0.885-1.534 1.12-3.322 0.662-5.035-0.238-0.888-0.65-1.697-1.204-2.396l8.714-10.911c0.814 0.443 1.699 0.751 2.623 0.916v7.655c-0.634 0.148-1.249 0.379-1.817 0.707-3.169 1.829-4.258 5.896-2.429 9.064 1.182 2.047 3.386 3.317 5.751 3.317 1.159 0 2.305-0.308 3.313-0.89 1.534-0.886 2.632-2.316 3.091-4.028s0.224-3.5-0.663-5.035c-0.926-1.603-2.48-2.72-4.246-3.133v-7.655c0.917-0.163 1.805-0.469 2.629-0.918l8.712 10.914c-1.631 2.07-1.94 5.009-0.544 7.428 1.182 2.047 3.386 3.317 5.751 3.317 1.159 0 2.305-0.308 3.313-0.89 1.534-0.886 2.632-2.316 3.091-4.028S74.676 60.511 73.789 58.976z" fill="#ee3e38" data-fill-palette-color="accent"></path></svg></g></svg></g><g></g></svg></g></svg></g></svg></g></svg></g></svg><rect width="320" height="360" fill="none" stroke="none" visibility="hidden"></rect></g></svg></g></svg>